# xmcd
#
# Track frame offsets: 
#        150
#        13817
#        30122
#        44542
#        57267
#        75097
#        87950
#        104295
#        120335
#        135850
#        151120
#
# Disc length: 2200 seconds
#
# Revision: 0
# Processed by: cddbd v1.5.2PL0 Copyright (c) Steve Scherf et al.
# Submitted via: ExactAudioCopy v0.99pb5
#
DISCID=6c08960b
DTITLE=Kennedy - Life Is A Party
DYEAR=2009
DGENRE=Electronic
TTITLE0=Karate
TTITLE1=John and Yoko (ft. Yelle)
TTITLE2=Oh Yeah
TTITLE3=Hillbilly Witchcraft
TTITLE4=Mama Made Me a Pimp
TTITLE5=Going Insane
TTITLE6=Life is a Party
TTITLE7=Sleep Talking
TTITLE8=Let It Out
TTITLE9=Wanted The World
TTITLE10=Your Mama
EXTD=
EXTT0=
EXTT1=
EXTT2=
EXTT3=
EXTT4=
EXTT5=
EXTT6=
EXTT7=
EXTT8=
EXTT9=
EXTT10=
PLAYORDER=
